<svg width="830" height="190" viewBox="0 0 830 190" xmlns="http://www.w3.org/2000/svg" role="img" aria-label="kyo219 — Building ML tools and cozy virtual spaces.">
  <defs>
    <linearGradient id="bg" x1="0" y1="0" x2="1" y2="1">
      <stop offset="0%" stop-color="#0f2027"/>
      <stop offset="55%" stop-color="#203a43"/>
      <stop offset="100%" stop-color="#2c5364"/>
    </linearGradient>
    <linearGradient id="accent" x1="0" y1="0" x2="1" y2="0">
      <stop offset="0%" stop-color="#43e97b"/>
      <stop offset="100%" stop-color="#38f9d7"/>
    </linearGradient>
  </defs>
  <rect width="830" height="190" rx="12" fill="url(#bg)"/>
  <!-- subtle contribution-graph dots -->
  <g fill="#43e97b" opacity="0.18">
    <rect x="640" y="34" width="14" height="14" rx="3"/>
    <rect x="660" y="34" width="14" height="14" rx="3" opacity="0.5"/>
    <rect x="700" y="34" width="14" height="14" rx="3"/>
    <rect x="620" y="54" width="14" height="14" rx="3" opacity="0.4"/>
    <rect x="680" y="54" width="14" height="14" rx="3"/>
    <rect x="720" y="54" width="14" height="14" rx="3" opacity="0.6"/>
    <rect x="760" y="54" width="14" height="14" rx="3"/>
    <rect x="640" y="74" width="14" height="14" rx="3" opacity="0.7"/>
    <rect x="660" y="74" width="14" height="14" rx="3"/>
    <rect x="740" y="74" width="14" height="14" rx="3" opacity="0.4"/>
    <rect x="620" y="94" width="14" height="14" rx="3"/>
    <rect x="700" y="94" width="14" height="14" rx="3" opacity="0.5"/>
    <rect x="760" y="94" width="14" height="14" rx="3"/>
    <rect x="660" y="114" width="14" height="14" rx="3" opacity="0.6"/>
    <rect x="720" y="114" width="14" height="14" rx="3"/>
    <rect x="640" y="134" width="14" height="14" rx="3" opacity="0.4"/>
    <rect x="680" y="134" width="14" height="14" rx="3" opacity="0.8"/>
    <rect x="740" y="134" width="14" height="14" rx="3"/>
  </g>
  <text x="48" y="92" font-family="-apple-system, 'Segoe UI', Helvetica, Arial, sans-serif" font-size="44" font-weight="700" fill="#ffffff">Hi, I'm kyo219 <tspan fill="#43e97b">👋</tspan></text>
  <text x="48" y="130" font-family="-apple-system, 'Segoe UI', Helvetica, Arial, sans-serif" font-size="19" fill="#c9d6df">Building ML tools and cozy virtual spaces.</text>
  <rect x="48" y="148" width="120" height="4" rx="2" fill="url(#accent)"/>
</svg>
